# xmcd
# 
# Track frame offsets:
#     150
#     16599
#     32575
#     51304
#     67860
#     82856
#     99194
#     115933
#     130223
#     144474
#     160181
#     177913
#     189882
#     202423
#     217715
# 
# Disc length: 3083
# 
# Revision: 3
# Processed by: cddbd v1.5.2PL0 Copyright (c) Steve Scherf et al.
# Submitted via: fre:ac v1.1beta1pre3
# 
DISCID=bb0c090f
DTITLE=Iggy Azalea - The New Classic ( Deluxe )
DYEAR=2014
DGENRE=Hip-Hop
TTITLE0=Walk the Line
TTITLE1=Don't Need Yall
TTITLE2=100 Featuring Watch The Duck
TTITLE3=Change Your Life Featuring T.I.
TTITLE4=Fancy Featuring Charli XCX
TTITLE5=New Bitch
TTITLE6=Work
TTITLE7=Impossible is Nothing
TTITLE8=Goddess
TTITLE9=Black Widow Featuring Rita Ora
TTITLE10=Lady Patra Featuring Mavado
TTITLE11=Fuck Love
TTITLE12=Bounce
TTITLE13=Rolex
TTITLE14=Just Askin'
EXTD=
EXTT0=
EXTT1=
EXTT2=
EXTT3=
EXTT4=
EXTT5=
EXTT6=
EXTT7=
EXTT8=
EXTT9=
EXTT10=
EXTT11=
EXTT12=
EXTT13=
EXTT14=
PLAYORDER=
